<?xml version="1.0" standalone="no"?><!DOCTYPE svg PUBLIC "-//W3C//DTD SVG 1.1//EN" "http://www.w3.org/Graphics/SVG/1.1/DTD/svg11.dtd"><svg t="1573095582784" class="icon" viewBox="0 0 1024 1024" version="1.1" xmlns="http://www.w3.org/2000/svg" p-id="2023" xmlns:xlink="http://www.w3.org/1999/xlink" width="200" height="200"><defs><style type="text/css"></style></defs><path d="M405.0732 676.215062c-62.777789 0-76.971046-37.993313-76.971046-60.57461 0-22.579251 15.198144-61.57745 75.950809-61.57745 72.904427 0 134.688585 33.871435 134.688585 33.871435S473.918171 676.215062 405.0732 676.215062zM906.393977 382.733914l-12.650111-14.624069c-61.70434-71.253834-169.751149-180.789553-240.09117-243.334028l-14.399965-12.833283c-35.161824-31.290657-81.524758-46.917566-127.877459-46.917566-46.344514 0-92.707448 15.626909-127.861086 46.917566l-14.417361 12.833283c-70.330812 62.544475-178.37148 172.080194-240.073774 243.334028l-12.661368 14.624069c-61.720713 71.328535-61.720713 187.958836 0 259.250532l12.661368 14.623046c61.703317 71.28965 169.742962 180.825368 240.065588 243.370867l14.434757 12.831236c35.153638 31.290657 81.506339 46.919613 127.860063 46.919613 46.343491 0 92.698239-15.627932 127.868249-46.919613l14.417361-12.831236c28.154223-25.052582 37.005822-32.472576 71.872934-67.13298l-0.071631-0.072655c3.611248-3.368724 5.904477-8.135284 5.904477-13.511735 0-10.107195-8.099469-18.351973-18.108426-18.351973-5.134951 0-9.765411 2.221598-13.072737 5.697769 0 0-43.682895 41.650609-70.582545 65.62872l-14.400988 12.831236c-27.364231 24.301476-64.23907 37.70781-103.82567 37.70781-39.588647 0-76.462462-13.406335-103.81953-37.741579l-14.426571-12.834306c-69.471235-61.790298-175.674045-169.425737-236.730633-239.965304l-12.643971-14.622022c-49.382711-57.062624-49.382711-153.441695 0-210.468502l12.661368-14.623046c61.013609-70.502727 167.215396-178.13919 236.740866-239.966327l14.399965-12.833283c27.347858-24.335245 64.221674-37.740556 103.810321-37.740556 39.594787 0 76.470649 13.406335 103.83488 37.740556l14.400988 12.833283c69.553099 61.863976 175.74363 169.499415 236.748029 239.966327l12.643971 14.623046c49.390897 57.026808 49.901527 156.99052 0 210.468502-49.89334 53.476959-57.931411 67.741847-125.172861 35.267225-62.894446-30.392194-156.549475-85.161588-156.549475-85.161588s34.112935-62.904679 47.78533-124.516922L523.552615 443.200054l0-36.953633 157.964708 0 0-36.95261L523.552615 369.293811l0-73.90829-36.461423 0 0 73.90829-157.967778 0 0 36.95261 157.967778 0 0 36.953633L365.575628 443.200054l0 36.954657 221.767849 0c-3.53143 24.657586-28.361955 69.821205-28.361955 69.821205s-73.915453-32.868595-148.85319-32.868595c-74.92955 0-118.478392 41.039695-118.478392 98.531084 0 57.492412 41.532929 99.571786 114.436332 99.571786 100.252285 0 172.251086-106.488313 172.251086-106.488313s84.937484 47.492664 163.91728 89.74907c78.971609 42.258453 102.437044 14.804171 164.149571-56.486502C968.124923 570.693774 968.124923 454.026634 906.393977 382.733914z" p-id="2024"></path></svg>