<?xml version="1.0" standalone="no"?><!DOCTYPE svg PUBLIC "-//W3C//DTD SVG 1.1//EN" "http://www.w3.org/Graphics/SVG/1.1/DTD/svg11.dtd"><svg t="1574650178042" class="icon" viewBox="0 0 1024 1024" version="1.1" xmlns="http://www.w3.org/2000/svg" p-id="3066" xmlns:xlink="http://www.w3.org/1999/xlink" width="200" height="200"><defs><style type="text/css"></style></defs><path d="M118.909013 928a32.256 32.256 0 0 1-23.082666-9.813333 31.786667 31.786667 0 0 1-8.917334-22.826667 31.786667 31.786667 0 0 1 9.856-22.442667l800-768a31.786667 31.786667 0 0 1 45.226667 0.938667 31.914667 31.914667 0 0 1-0.896 45.269333l-800 768a32.128 32.128 0 0 1-22.186667 8.874667zM508.754347 864c-45.994667 0-91.648-6.912-135.637334-20.565333a31.957333 31.957333 0 1 1 18.901334-61.184 396.672 396.672 0 0 0 117.504 17.706666l7.978666 0.042667c164.949333 0 331.733333-118.869333 432.810667-230.101333a38.698667 38.698667 0 0 0-0.042667-51.968 847.104 847.104 0 0 0-126.250666-113.28 32.085333 32.085333 0 0 1 18.858666-57.856c6.826667 0 13.354667 2.133333 18.858667 6.144a909.312 909.312 0 0 1 135.978667 121.984c35.541333 39.338667 35.541333 98.645333 0.085333 137.898666-110.336 121.429333-294.229333 251.136-479.488 251.178667h-9.557333zM161.149013 725.802667a31.573333 31.573333 0 0 1-19.626666-6.741334 912.64 912.64 0 0 1-114.688-106.112 102.656 102.656 0 0 1-0.085334-137.941333C137.12768 353.621333 321.06368 223.957333 506.493013 223.957333l9.898667 0.042667c35.882667 0 71.68 4.352 106.496 12.970667a31.829333 31.829333 0 0 1 19.712 14.549333 31.957333 31.957333 0 0 1-35.072 47.616 381.397333 381.397333 0 0 0-91.52-11.136l-9.813333-0.042667c-164.352 0-330.922667 118.826667-432.042667 230.058667a38.698667 38.698667 0 0 0 0.085333 51.968 847.402667 847.402667 0 0 0 106.538667 98.56 31.829333 31.829333 0 0 1 5.632 44.885333 31.829333 31.829333 0 0 1-25.258667 12.373334z" p-id="3067"></path><path d="M352.16768 576a32 32 0 0 1-32-32c0-105.856 86.144-192 192-192A32 32 0 0 1 512.210347 416a128.170667 128.170667 0 0 0-128.042667 128c0 17.621333-14.378667 32-32 32zM512.210347 736a32 32 0 0 1 0-64 127.146667 127.146667 0 0 0 90.496-37.504c24.149333-24.192 37.461333-56.32 37.461333-90.538667a32 32 0 0 1 64 0 190.890667 190.890667 0 0 1-56.192 135.765334A190.762667 190.762667 0 0 1 512.210347 736z" p-id="3068"></path></svg>