<?xml version="1.0" standalone="no"?><!DOCTYPE svg PUBLIC "-//W3C//DTD SVG 1.1//EN" "http://www.w3.org/Graphics/SVG/1.1/DTD/svg11.dtd"><svg t="1572922980337" class="icon" viewBox="0 0 1024 1024" version="1.1" xmlns="http://www.w3.org/2000/svg" p-id="6009" xmlns:xlink="http://www.w3.org/1999/xlink" width="200" height="200"><defs><style type="text/css"></style></defs><path d="M817 857.3H209c-79.9 0-145-66.4-145-148.1V333.1c0-32.6 19.2-61.5 49-73.7 29.5-12 61.8-5.2 84.2 17.8l248.8 255c17.8 18.3 41.6 28.4 66.9 28.4s49.1-10.1 66.9-28.4l202.5-207.8c9.6-9.9 25.5-10.1 35.4-0.5 9.9 9.6 10.1 25.5 0.5 35.4L615.7 567.1c-27.3 28-63.8 43.5-102.7 43.5-38.9 0-75.4-15.4-102.7-43.5L161.5 312.2c-11.9-12.2-25.6-8-29.6-6.4-4.2 1.7-17.9 8.7-17.9 27.4v376.1c0 54.1 42.6 98.1 94.9 98.1h608c52.4 0 94.9-44 94.9-98.1V315c0-54.1-42.6-98.1-94.9-98.1H308.2c-13.8 0-25-11.2-25-25s11.2-25 25-25H817c79.9 0 144.9 66.4 144.9 148.1v394.2c0.1 81.7-65 148.1-144.9 148.1z" p-id="6010"></path></svg>