<?xml version="1.0" standalone="no"?><!DOCTYPE svg PUBLIC "-//W3C//DTD SVG 1.1//EN" "http://www.w3.org/Graphics/SVG/1.1/DTD/svg11.dtd"><svg t="1574650173702" class="icon" viewBox="0 0 1024 1024" version="1.1" xmlns="http://www.w3.org/2000/svg" p-id="2948" xmlns:xlink="http://www.w3.org/1999/xlink" width="200" height="200"><defs><style type="text/css"></style></defs><path d="M512 832C324.16 832 155.2 730.624 6.4 531.136a32 32 0 0 1 0-38.272C155.136 293.376 324.096 192 512 192c187.84 0 356.8 101.376 505.6 300.864a32 32 0 0 1 0 38.272C868.864 730.624 699.904 832 512 832z m0-64c159.808 0 306.048-84.352 439.744-256C817.984 340.352 671.808 256 512 256 352.192 256 205.952 340.352 72.256 512c133.76 171.648 279.936 256 439.744 256z m0-64a192 192 0 1 1 0-384 192 192 0 0 1 0 384z m0-64a128 128 0 1 0 0-256 128 128 0 0 0 0 256z" p-id="2949"></path></svg>