<?xml version="1.0" standalone="no"?><!DOCTYPE svg PUBLIC "-//W3C//DTD SVG 1.1//EN" "http://www.w3.org/Graphics/SVG/1.1/DTD/svg11.dtd"><svg t="1575209836771" class="icon" viewBox="0 0 1029 1024" version="1.1" xmlns="http://www.w3.org/2000/svg" p-id="2028" xmlns:xlink="http://www.w3.org/1999/xlink" width="200.9765625" height="200"><defs><style type="text/css"></style></defs><path d="M763.255227 547.144339l-76.016861-9.24788a279.51809 279.51809 0 0 0 2.021852-33.557963c0-127.580077-90.193755-240.468824-214.483835-268.344067l16.749072-74.700862a351.263938 351.263938 0 0 1 274.325878 343.044929 356.575787 356.575787 0 0 1-2.596106 42.805843z" p-id="2029"></path><path d="M463.889486 927.767008a463.985195 463.985195 0 0 1-180.578927-891.289921 463.997159 463.997159 0 0 1 361.157854 854.824798 461.006253 461.006253 0 0 1-180.578927 36.465123z m0-851.19982C250.32685 76.567188 76.543261 250.314886 76.543261 463.889486s173.783589 387.310335 387.346225 387.310335S851.211784 677.452122 851.211784 463.889486 677.452122 76.567188 463.889486 76.567188z" p-id="2030"></path><path d="M754.342328 802.672972l54.141376-54.141376 221.327028 221.327028-54.141377 54.141376z" p-id="2031"></path></svg>